<?xml version="1.0" standalone="no"?>
<!DOCTYPE svg PUBLIC "-//W3C//DTD SVG 20010904//EN"
 "http://www.w3.org/TR/2001/REC-SVG-20010904/DTD/svg10.dtd">
<svg version="1.0" xmlns="http://www.w3.org/2000/svg"
 width="512.000000pt" height="512.000000pt" viewBox="0 0 512.000000 512.000000"
 preserveAspectRatio="xMidYMid meet">
<metadata>
Created by potrace 1.11, written by Peter Selinger 2001-2013
</metadata>
<g transform="translate(0.000000,512.000000) scale(0.100000,-0.100000)"
fill="#000000" stroke="none">
<path d="M2340 3823 c-168 -27 -326 -75 -421 -128 -32 -19 -59 -32 -59 -30 0
6 -159 -104 -193 -134 -200 -176 -336 -391 -401 -634 -28 -103 -34 -141 -23
-144 4 -1 28 7 54 18 213 92 541 226 568 232 6 1 12 4 15 7 3 3 25 12 50 21
251 91 308 111 325 120 26 12 527 177 557 183 13 3 77 21 143 41 66 19 129 37
140 40 11 2 35 8 53 14 18 5 35 10 37 10 3 1 7 2 10 2 11 3 22 5 88 19 37 7
67 17 67 21 0 4 -23 27 -51 51 -29 23 -57 48 -63 54 -27 25 -181 111 -266 148
-61 26 -188 65 -240 73 -14 2 -36 6 -50 9 -31 7 -306 13 -340 7z"/>
<path d="M3829 3519 c-7 -4 -16 -6 -20 -3 -10 6 -196 -21 -320 -47 -52 -11
-104 -21 -115 -23 -20 -5 -109 -25 -134 -31 -8 -3 -42 -11 -75 -20 -33 -8 -69
-18 -81 -20 -12 -3 -84 -23 -160 -45 -76 -23 -146 -43 -154 -45 -8 -2 -34 -10
-57 -19 -24 -8 -43 -13 -43 -9 0 3 -6 1 -13 -5 -7 -6 -24 -13 -37 -16 -14 -2
-72 -21 -130 -41 -58 -20 -109 -38 -115 -39 -5 -2 -17 -6 -25 -9 -8 -3 -46
-16 -85 -30 -135 -48 -301 -110 -430 -161 -71 -27 -132 -51 -135 -52 -6 -1
-43 -17 -95 -39 -22 -10 -44 -19 -50 -20 -26 -7 -602 -263 -697 -310 -27 -13
-48 -22 -48 -20 0 3 -50 -16 -115 -45 -26 -12 -133 -56 -196 -80 -27 -11 -49
-18 -49 -16 0 2 37 41 83 87 91 93 119 130 108 147 -9 14 -51 -6 -83 -41 -43
-44 -251 -217 -262 -217 -6 0 -33 -20 -60 -45 -29 -26 -74 -54 -109 -67 -61
-24 -93 -54 -116 -114 -10 -26 -10 -38 5 -70 9 -22 18 -48 19 -59 8 -59 31
-115 48 -115 5 0 106 39 225 86 129 51 218 81 220 75 6 -18 22 -14 147 37 110
44 121 51 140 87 18 37 35 48 222 142 112 55 201 98 198 93 -4 -7 16 -126 31
-176 4 -17 -3 -28 -33 -50 -21 -16 -43 -33 -50 -39 -19 -15 -32 -26 -113 -90
-104 -82 -299 -279 -341 -345 -103 -159 -71 -249 101 -285 80 -17 319 -11 430
10 14 2 45 7 70 9 72 8 282 53 515 110 36 9 83 22 175 48 58 16 119 33 135 38
17 4 59 17 95 29 36 11 67 20 70 21 8 0 454 154 545 188 161 59 274 103 430
167 88 36 165 67 170 69 6 1 26 9 45 18 19 8 64 28 100 43 36 15 93 40 128 56
35 16 65 29 67 29 2 0 43 18 90 40 47 22 88 40 89 40 2 0 84 39 182 86 168 80
181 85 211 74 27 -9 39 -8 74 10 24 11 47 20 51 20 5 0 40 14 79 32 50 23 71
38 75 55 4 13 10 23 15 23 8 0 168 67 334 140 22 10 50 21 63 24 12 4 22 13
22 20 0 23 -30 86 -50 106 -11 11 -19 23 -19 27 1 5 -4 22 -12 40 -10 26 -25
36 -70 53 -54 20 -58 21 -95 5 -66 -28 -117 -41 -174 -44 -30 -1 -62 -7 -71
-11 -9 -5 -52 -12 -95 -15 -43 -3 -104 -8 -134 -11 -30 -3 -64 -4 -75 -4 -33
2 -39 1 -75 -5 -45 -9 -55 -19 -34 -36 13 -11 51 -14 156 -14 76 0 138 -2 138
-5 0 -3 -28 -16 -62 -30 -35 -13 -67 -27 -73 -31 -5 -4 -41 -19 -80 -34 -38
-14 -74 -30 -79 -35 -6 -6 -18 -10 -28 -10 -10 0 -23 -11 -28 -25 -7 -19 -50
-44 -192 -114 l-183 -89 -3 76 c-2 42 -8 82 -14 89 -7 9 -7 13 1 13 8 0 9 5 2
17 -7 14 -1 23 32 47 23 17 44 33 47 36 3 3 41 34 85 70 201 163 358 335 396
435 34 89 0 162 -86 187 -22 6 -47 13 -55 16 -27 9 -317 10 -331 1z m166 -252
c28 -14 46 -26 40 -27 -5 0 -4 -4 4 -9 9 -6 14 -24 13 -51 -3 -75 -57 -156
-199 -297 -57 -57 -107 -103 -111 -103 -7 0 -33 89 -32 112 0 5 -9 32 -21 60
-11 29 -22 60 -23 68 -5 18 -58 133 -66 140 -3 3 -17 28 -32 56 l-27 52 42 7
c23 3 65 9 92 12 28 3 52 7 53 9 2 1 52 1 110 0 93 -2 113 -6 157 -29z m-2705
-1111 c0 -20 42 -119 58 -138 8 -10 12 -18 9 -18 -4 0 2 -15 13 -32 10 -18 31
-54 46 -80 15 -26 31 -45 37 -41 6 3 7 1 3 -6 -9 -15 20 -44 35 -35 8 4 9 3 5
-5 -7 -11 33 -76 58 -93 12 -9 -10 -27 -34 -29 -17 -1 -44 -5 -115 -19 -121
-23 -281 -30 -360 -16 -56 11 -103 49 -111 90 -14 80 96 234 285 398 53 45 71
51 71 24z"/>
<path d="M3650 2140 c-8 -5 -82 -37 -165 -71 -82 -34 -159 -65 -170 -70 -37
-16 -250 -101 -260 -103 -5 -2 -21 -7 -35 -13 -14 -6 -52 -20 -85 -32 -33 -12
-67 -24 -75 -28 -47 -19 -518 -182 -523 -181 -1 1 -47 -13 -102 -30 -160 -50
-382 -112 -400 -112 -26 0 -7 -18 48 -47 137 -72 284 -121 417 -140 121 -17
361 -8 465 18 22 5 47 11 55 13 81 20 290 110 298 129 2 4 9 7 16 7 20 0 196
139 258 204 33 33 76 84 98 111 45 58 120 180 120 195 0 5 5 10 10 10 6 0 9 3
8 8 -1 7 14 49 34 92 7 14 13 28 15 32 6 12 -12 17 -27 8z"/>
</g>
</svg>
